<svg width="39" height="39" viewBox="0 0 39 39" fill="none" xmlns="http://www.w3.org/2000/svg">
    <g clipPath="url(#clip0_9_268)">
        <mask id="mask0_9_268" style="mask-type:luminance" maskUnits="userSpaceOnUse" x="0" y="0"
            width="39" height="39">
            <path d="M39 0H0V39H39V0Z" fill="white" />
        </mask>
        <g mask="url(#mask0_9_268)">
            <path
                d="M4.875 13C4.875 12.1025 5.60254 11.375 6.5 11.375H13.8125L15.4375 6.5H23.5625L25.1875 11.375H32.5C33.3975 11.375 34.125 12.1025 34.125 13V30.875C34.125 31.7725 33.3975 32.5 32.5 32.5H6.5C5.60254 32.5 4.875 31.7725 4.875 30.875V13Z"
                stroke="black" strokeWidth="4.6595" stroke-linecap="round" stroke-linejoin="round" />
            <path
                d="M19.5 26C22.1924 26 24.375 23.8174 24.375 21.125C24.375 18.4326 22.1924 16.25 19.5 16.25C16.8076 16.25 14.625 18.4326 14.625 21.125C14.625 23.8174 16.8076 26 19.5 26Z"
                stroke="black" strokeWidth="4.6595" stroke-linejoin="round" />
        </g>
    </g>
    <defs>
        <clipPath id="clip0_9_268">
            <rect width="39" height="39" fill="white" />
        </clipPath>
    </defs>
</svg>