<svg width="25" height="25" viewBox="0 0 25 25" fill="none" xmlns="http://www.w3.org/2000/svg">
    <path
        d="M5.07812 2.34375C4.14572 2.34375 3.25151 2.71415 2.5922 3.37345C1.9329 4.03276 1.5625 4.92697 1.5625 5.85937V15.2344C1.5625 16.1668 1.9329 17.061 2.5922 17.7203C3.25151 18.3796 4.14572 18.75 5.07812 18.75H6.25V21.9383C6.25 23.2711 7.8125 23.9922 8.82656 23.1273L13.9594 18.75H19.9219C20.8543 18.75 21.7485 18.3796 22.4078 17.7203C23.0671 17.061 23.4375 16.1668 23.4375 15.2344V5.85937C23.4375 4.92697 23.0671 4.03276 22.4078 3.37345C21.7485 2.71415 20.8543 2.34375 19.9219 2.34375H5.07812ZM3.125 5.85937C3.125 5.34137 3.33078 4.84459 3.69706 4.47831C4.06334 4.11202 4.56012 3.90625 5.07812 3.90625H19.9219C20.4399 3.90625 20.9367 4.11202 21.3029 4.47831C21.6692 4.84459 21.875 5.34137 21.875 5.85937V15.2344C21.875 15.7524 21.6692 16.2492 21.3029 16.6154C20.9367 16.9817 20.4399 17.1875 19.9219 17.1875H13.6719C13.4859 17.1877 13.3062 17.2542 13.1648 17.375L7.8125 21.9375V17.9687C7.8125 17.7615 7.73019 17.5628 7.58368 17.4163C7.43716 17.2698 7.23845 17.1875 7.03125 17.1875H5.07812C4.56012 17.1875 4.06334 16.9817 3.69706 16.6154C3.33078 16.2492 3.125 15.7524 3.125 15.2344V5.85937ZM11.7188 11.7187H18.75C18.9572 11.7187 19.1559 11.6364 19.3024 11.4899C19.4489 11.3434 19.5312 11.1447 19.5312 10.9375C19.5312 10.7303 19.4489 10.5316 19.3024 10.3851C19.1559 10.2386 18.9572 10.1562 18.75 10.1562H11.7188C11.5115 10.1562 11.3128 10.2386 11.1663 10.3851C11.0198 10.5316 10.9375 10.7303 10.9375 10.9375C10.9375 11.1447 11.0198 11.3434 11.1663 11.4899C11.3128 11.6364 11.5115 11.7187 11.7188 11.7187ZM8.59375 10.1562H6.25C6.0428 10.1562 5.84409 10.2386 5.69757 10.3851C5.55106 10.5316 5.46875 10.7303 5.46875 10.9375C5.46875 11.1447 5.55106 11.3434 5.69757 11.4899C5.84409 11.6364 6.0428 11.7187 6.25 11.7187H8.59375C8.80095 11.7187 8.99966 11.6364 9.14618 11.4899C9.29269 11.3434 9.375 11.1447 9.375 10.9375C9.375 10.7303 9.29269 10.5316 9.14618 10.3851C8.99966 10.2386 8.80095 10.1562 8.59375 10.1562ZM6.25 13.2812C6.0428 13.2812 5.84409 13.3636 5.69757 13.5101C5.55106 13.6566 5.46875 13.8553 5.46875 14.0625C5.46875 14.2697 5.55106 14.4684 5.69757 14.6149C5.84409 14.7614 6.0428 14.8437 6.25 14.8437H13.2812C13.4885 14.8437 13.6872 14.7614 13.8337 14.6149C13.9802 14.4684 14.0625 14.2697 14.0625 14.0625C14.0625 13.8553 13.9802 13.6566 13.8337 13.5101C13.6872 13.3636 13.4885 13.2812 13.2812 13.2812H6.25ZM16.4062 14.8437C16.199 14.8437 16.0003 14.7614 15.8538 14.6149C15.7073 14.4684 15.625 14.2697 15.625 14.0625C15.625 13.8553 15.7073 13.6566 15.8538 13.5101C16.0003 13.3636 16.199 13.2812 16.4062 13.2812H18.75C18.9572 13.2812 19.1559 13.3636 19.3024 13.5101C19.4489 13.6566 19.5312 13.8553 19.5312 14.0625C19.5312 14.2697 19.4489 14.4684 19.3024 14.6149C19.1559 14.7614 18.9572 14.8437 18.75 14.8437H16.4062Z"
        fill="black" />
</svg>