<svg width="50" height="50" viewBox="0 0 50 50" fill="none" xmlns="http://www.w3.org/2000/svg">
    <path fillRule="evenodd" clipRule="evenodd"
        d="M10.4165 15.625C10.4165 14.3939 10.659 13.1748 11.1301 12.0373C11.6013 10.8999 12.2918 9.86642 13.1624 8.99587C14.0329 8.12532 15.0664 7.43477 16.2038 6.96363C17.3413 6.49249 18.5604 6.25 19.7915 6.25C21.0226 6.25 22.2417 6.49249 23.3792 6.96363C24.5166 7.43477 25.5501 8.12532 26.4206 8.99587C27.2912 9.86642 27.9817 10.8999 28.4529 12.0373C28.924 13.1748 29.1665 14.3939 29.1665 15.625C29.1665 18.1114 28.1788 20.496 26.4206 22.2541C24.6625 24.0123 22.2779 25 19.7915 25C17.3051 25 14.9205 24.0123 13.1624 22.2541C11.4042 20.496 10.4165 18.1114 10.4165 15.625ZM19.7915 10.4167C18.4102 10.4167 17.0854 10.9654 16.1087 11.9422C15.1319 12.9189 14.5832 14.2437 14.5832 15.625C14.5832 17.0063 15.1319 18.3311 16.1087 19.3078C17.0854 20.2846 18.4102 20.8333 19.7915 20.8333C21.1728 20.8333 22.4976 20.2846 23.4744 19.3078C24.4511 18.3311 24.9998 17.0063 24.9998 15.625C24.9998 14.2437 24.4511 12.9189 23.4744 11.9422C22.4976 10.9654 21.1728 10.4167 19.7915 10.4167ZM19.7915 27.0833C23.9436 27.0833 27.7186 28.35 30.4936 30.1375C31.8832 31.0333 33.0728 32.0896 33.9373 33.2417C34.7853 34.3771 35.4165 35.7417 35.4165 37.2021C35.4165 38.775 34.6873 40.0354 33.6165 40.9458C32.6061 41.8 31.2894 42.3542 29.929 42.7354C27.1936 43.5 23.5748 43.75 19.7915 43.75C16.0082 43.75 12.3894 43.5 9.65609 42.7354C8.29359 42.3542 6.97692 41.8 5.96859 40.9458C4.89359 40.0375 4.1665 38.775 4.1665 37.2021C4.1665 35.7396 4.79775 34.3771 5.64567 33.2437C6.51025 32.0896 7.69984 31.0312 9.08942 30.1396C11.8644 28.3479 15.6394 27.0833 19.7915 27.0833ZM19.7915 31.25C16.4644 31.25 13.4686 32.275 11.3436 33.6417C10.2811 34.325 9.48942 35.0625 8.98109 35.7396C8.46025 36.4354 8.33317 36.9396 8.33317 37.2021C8.33317 37.3562 8.36442 37.5146 8.66025 37.7646C9.02067 38.0729 9.68942 38.4187 10.7769 38.7229C12.9436 39.3271 16.0957 39.5833 19.7915 39.5833C23.4873 39.5833 26.6394 39.3271 28.8061 38.7229C29.8936 38.4187 30.5623 38.0729 30.9228 37.7646C31.2186 37.5146 31.2498 37.3562 31.2498 37.2021C31.2498 36.9396 31.1228 36.4354 30.6019 35.7396C30.0936 35.0625 29.3019 34.325 28.2394 33.6417C26.1144 32.275 23.1186 31.25 19.7915 31.25ZM37.4998 27.0833C40.2498 27.0833 42.7457 27.9917 44.5832 29.2729C46.2957 30.4667 47.9165 32.35 47.9165 34.5229C47.9165 35.7458 47.3894 36.7583 46.5873 37.4937C45.8436 38.1771 44.9019 38.5937 43.9957 38.8687C42.1832 39.4167 39.8498 39.5833 37.4998 39.5833H37.0769C37.3478 38.8583 37.4998 38.0625 37.4998 37.2021C37.4971 36.7354 37.4554 36.284 37.3748 35.8479L37.2769 35.4167H37.4998C39.7519 35.4167 41.5832 35.2458 42.7894 34.8812C43.3353 34.7146 43.6165 34.5479 43.7373 34.4521C43.6769 34.2063 43.3519 33.4937 42.1998 32.6917C41.1959 32.0077 40.0546 31.5516 38.8559 31.3551C37.6572 31.1586 36.43 31.2265 35.2603 31.5542C34.2519 30.3564 33.0692 29.317 31.7519 28.4708C33.531 27.5598 35.501 27.0843 37.4998 27.0833ZM31.2498 18.75C31.2498 17.0924 31.9083 15.5027 33.0804 14.3306C34.2525 13.1585 35.8422 12.5 37.4998 12.5C39.1574 12.5 40.7472 13.1585 41.9193 14.3306C43.0914 15.5027 43.7498 17.0924 43.7498 18.75C43.7498 20.4076 43.0914 21.9973 41.9193 23.1694C40.7472 24.3415 39.1574 25 37.4998 25C35.8422 25 34.2525 24.3415 33.0804 23.1694C31.9083 21.9973 31.2498 20.4076 31.2498 18.75ZM37.4998 16.6667C36.9473 16.6667 36.4174 16.8862 36.0267 17.2769C35.636 17.6676 35.4165 18.1975 35.4165 18.75C35.4165 19.3025 35.636 19.8324 36.0267 20.2231C36.4174 20.6138 36.9473 20.8333 37.4998 20.8333C38.0524 20.8333 38.5823 20.6138 38.973 20.2231C39.3637 19.8324 39.5832 19.3025 39.5832 18.75C39.5832 18.1975 39.3637 17.6676 38.973 17.2769C38.5823 16.8862 38.0524 16.6667 37.4998 16.6667Z"
        fill="black" />
</svg>