<svg width="35" height="30" viewBox="0 0 35 30" fill="none" xmlns="http://www.w3.org/2000/svg">
    <path
        d="M10.1215 11.4289C11.3229 11.3074 12.2522 11.5187 12.5844 11.679C12.7316 11.7562 12.8933 11.8038 13.0598 11.8191C13.2263 11.8344 13.3943 11.817 13.5538 11.768C13.7133 11.7189 13.861 11.6393 13.9882 11.5337C14.1154 11.4281 14.2195 11.2987 14.2943 11.1533C14.3691 11.0078 14.4131 10.8492 14.4236 10.6869C14.4342 10.5246 14.4111 10.3619 14.3558 10.2085C14.3005 10.055 14.214 9.91391 14.1015 9.79356C13.989 9.67321 13.8528 9.57605 13.7009 9.50786C12.8242 9.08043 11.3829 8.85943 9.86168 9.01486C7.4637 9.25771 4.99579 11.2831 4.99579 14.5933C4.99579 17.9569 7.62857 20.179 10.7409 20.179C12.1897 20.179 13.4886 19.5184 14.2305 18.836C14.8849 18.2337 14.9874 17.4347 14.9874 16.9344V14.5933C14.9874 14.2712 14.8558 13.9624 14.6216 13.7347C14.3873 13.5069 14.0697 13.379 13.7384 13.379H11.7226C11.3914 13.379 11.0737 13.5069 10.8395 13.7347C10.6053 13.9624 10.4737 14.2712 10.4737 14.5933C10.4737 14.9153 10.6053 15.2242 10.8395 15.4519C11.0737 15.6796 11.3914 15.8076 11.7226 15.8076H12.4895V16.9344C12.4898 16.9922 12.4847 17.0499 12.4745 17.1069C11.9877 17.5052 11.3769 17.732 10.7409 17.7504C8.91498 17.7504 7.49368 16.524 7.49368 14.5933C7.49368 12.6067 8.90998 11.5527 10.1215 11.4289ZM19.9831 10.2243C19.9831 9.90224 19.8516 9.59338 19.6173 9.36566C19.3831 9.13793 19.0654 9.01 18.7342 9.01C18.403 9.01 18.0853 9.13793 17.8511 9.36566C17.6168 9.59338 17.4853 9.90224 17.4853 10.2243V18.9671C17.4853 19.2892 17.6168 19.598 17.8511 19.8258C18.0853 20.0535 18.403 20.1814 18.7342 20.1814C19.0654 20.1814 19.3831 20.0535 19.6173 19.8258C19.8516 19.598 19.9831 19.2892 19.9831 18.9671V10.2243ZM23.73 9.01C23.3987 9.01 23.0811 9.13793 22.8468 9.36566C22.6126 9.59338 22.481 9.90224 22.481 10.2243V18.9671C22.481 19.2892 22.6126 19.598 22.8468 19.8258C23.0811 20.0535 23.3987 20.1814 23.73 20.1814C24.0612 20.1814 24.3789 20.0535 24.6131 19.8258C24.8473 19.598 24.9789 19.2892 24.9789 18.9671V15.8003L27.4843 15.7857C27.8156 15.7838 28.1324 15.654 28.3653 15.4249C28.5981 15.1958 28.7278 14.8862 28.7258 14.5641C28.7238 14.2421 28.5903 13.934 28.3547 13.7076C28.119 13.4813 27.8006 13.3552 27.4693 13.3571L24.9789 13.3717V11.4361H28.7258C29.057 11.4361 29.3747 11.3082 29.6089 11.0805C29.8431 10.8528 29.9747 10.5439 29.9747 10.2219C29.9747 9.89981 29.8431 9.59095 29.6089 9.36323C29.3747 9.13551 29.057 9.00757 28.7258 9.00757L23.73 9.01ZM6.24473 0C4.58853 0 3.00015 0.639666 1.82904 1.77828C0.657925 2.91689 0 4.46119 0 6.07143V23.0714C0 24.6817 0.657925 26.226 1.82904 27.3646C3.00015 28.5032 4.58853 29.1429 6.24473 29.1429H28.7258C30.382 29.1429 31.9703 28.5032 33.1415 27.3646C34.3126 26.226 34.9705 24.6817 34.9705 23.0714V6.07143C34.9705 4.46119 34.3126 2.91689 33.1415 1.77828C31.9703 0.639666 30.382 0 28.7258 0H6.24473ZM2.49789 6.07143C2.49789 5.10528 2.89265 4.17871 3.59532 3.49554C4.29799 2.81237 5.25101 2.42857 6.24473 2.42857H28.7258C29.7195 2.42857 30.6725 2.81237 31.3752 3.49554C32.0779 4.17871 32.4726 5.10528 32.4726 6.07143V23.0714C32.4726 24.0376 32.0779 24.9641 31.3752 25.6473C30.6725 26.3305 29.7195 26.7143 28.7258 26.7143H6.24473C5.25101 26.7143 4.29799 26.3305 3.59532 25.6473C2.89265 24.9641 2.49789 24.0376 2.49789 23.0714V6.07143Z"
        fill="#7B7B7B" />
</svg>