<svg width="27" height="27" viewBox="0 0 27 27" fill="none" xmlns="http://www.w3.org/2000/svg">
    <path
        d="M14.1712 22.684L22.6006 14.1736C23.6936 13.057 24.3039 11.5553 24.2996 9.9927C24.2953 8.4301 23.6768 6.93182 22.5776 5.82118C22.0381 5.27082 21.3945 4.83324 20.6843 4.5339C19.9741 4.23456 19.2114 4.07944 18.4407 4.07755C17.67 4.07567 16.9066 4.22706 16.195 4.52292C15.4833 4.81879 14.8376 5.25321 14.2954 5.80093L13.4908 6.61498L12.674 5.79148L12.539 5.65783C11.4389 4.60617 9.96968 4.02864 8.44787 4.04959C6.92606 4.07055 5.47335 4.68832 4.40257 5.76988C2.12377 8.07163 2.13457 11.8125 4.42417 14.125L12.8981 22.684C13.2491 23.0391 13.8202 23.0391 14.1712 22.684ZM15.2552 6.74998C15.672 6.32929 16.1683 5.99574 16.7152 5.76877C17.2622 5.54181 17.8488 5.42595 18.441 5.42796C19.0332 5.42997 19.619 5.54981 20.1644 5.78048C20.7098 6.01116 21.2039 6.34807 21.6178 6.77158C22.4666 7.62963 22.9445 8.78671 22.9485 9.99366C22.9525 11.2006 22.4824 12.3609 21.6394 13.2246V13.2273L13.534 21.4083L5.38267 13.1746C3.61012 11.3845 3.60877 8.49013 5.36242 6.71893C5.77846 6.29869 6.27401 5.96548 6.82016 5.73874C7.36632 5.51199 7.95215 5.39625 8.54349 5.39826C9.13484 5.40027 9.71987 5.52 10.2645 5.75045C10.8091 5.9809 11.3023 6.31747 11.7155 6.74053L13.0115 8.05003C13.0743 8.1135 13.149 8.16389 13.2314 8.19828C13.3138 8.23267 13.4022 8.25037 13.4914 8.25037C13.5807 8.25037 13.6691 8.23267 13.7515 8.19828C13.8339 8.16389 13.9086 8.1135 13.9714 8.05003L15.2552 6.74998Z"
        fill="black" />
</svg>