<svg width="42" height="47" viewBox="0 0 42 47" fill="none" xmlns="http://www.w3.org/2000/svg">
    <path
        d="M20.8668 4.85858C21.5586 4.85858 22.222 5.16571 22.7112 5.71241C23.2003 6.25911 23.4751 7.0006 23.4751 7.77375C23.4751 8.5469 23.2003 9.28838 22.7112 9.83508C22.222 10.3818 21.5586 10.6889 20.8668 10.6889H12.1725C11.9419 10.6889 11.7207 10.7913 11.5577 10.9735C11.3946 11.1558 11.303 11.4029 11.303 11.6606V34.982C11.303 35.2397 11.3946 35.4868 11.5577 35.6691C11.7207 35.8513 11.9419 35.9537 12.1725 35.9537H19.9974C20.6892 35.9537 21.3526 36.2608 21.8417 36.8075C22.3309 37.3542 22.6057 38.0957 22.6057 38.8689C22.6057 39.642 22.3309 40.3835 21.8417 40.9302C21.3526 41.4769 20.6892 41.784 19.9974 41.784H12.1725C10.5584 41.784 9.01034 41.0674 7.86899 39.7917C6.72763 38.5161 6.08643 36.786 6.08643 34.982V11.6606C6.08643 9.85662 6.72763 8.12649 7.86899 6.85086C9.01034 5.57522 10.5584 4.85858 12.1725 4.85858H20.8668ZM31.4044 15.7613L36.3237 21.2612C36.8121 21.8078 37.0865 22.5488 37.0865 23.3213C37.0865 24.0938 36.8121 24.8348 36.3237 25.3814L31.4061 30.8813C30.9168 31.4282 30.2532 31.7354 29.5612 31.7354C28.8692 31.7354 28.2056 31.4282 27.7162 30.8813C27.2269 30.3344 26.952 29.5927 26.952 28.8193C26.952 28.0459 27.2269 27.3042 27.7162 26.7573L28.1823 26.2365H20.8668C20.1751 26.2365 19.5116 25.9293 19.0225 25.3826C18.5333 24.8359 18.2585 24.0945 18.2585 23.3213C18.2585 22.5482 18.5333 21.8067 19.0225 21.26C19.5116 20.7133 20.1751 20.4061 20.8668 20.4061H28.1823L27.7162 19.8853C27.4741 19.6145 27.282 19.2931 27.151 18.9393C27.02 18.5856 26.9526 18.2064 26.9527 17.8236C26.9527 17.4407 27.0203 17.0616 27.1515 16.708C27.2826 16.3543 27.4748 16.0329 27.7171 15.7623C27.9594 15.4916 28.247 15.2769 28.5635 15.1305C28.88 14.9841 29.2192 14.9088 29.5618 14.9089C29.9044 14.9089 30.2435 14.9844 30.56 15.131C30.8764 15.2776 31.164 15.4925 31.4061 15.7632L31.4044 15.7613Z"
        fill="black" />
</svg>