<svg width="47" height="47" viewBox="0 0 47 47" fill="none" xmlns="http://www.w3.org/2000/svg">
    <path
        d="M23.9306 3.91663H23.0689C22.0302 3.91663 21.0339 4.32927 20.2994 5.06379C19.5649 5.79831 19.1523 6.79453 19.1523 7.83329V8.18579C19.1516 8.87263 18.9702 9.54721 18.6265 10.1418C18.2828 10.7365 17.7887 11.2303 17.1939 11.5737L16.3518 12.0633C15.7564 12.4071 15.081 12.588 14.3935 12.588C13.706 12.588 13.0306 12.4071 12.4352 12.0633L12.1414 11.9066C11.2427 11.3882 10.1749 11.2475 9.1726 11.5156C8.17025 11.7836 7.31521 12.4384 6.79518 13.3362L6.36434 14.0804C5.8459 14.9791 5.70525 16.0469 5.97328 17.0492C6.24131 18.0516 6.8961 18.9066 7.79393 19.4266L8.08768 19.6225C8.67963 19.9642 9.17185 20.4549 9.5154 21.0458C9.85895 21.6367 10.0419 22.3073 10.046 22.9908V23.9895C10.0487 24.6797 9.86907 25.3583 9.52518 25.9567C9.18128 26.5551 8.68538 27.052 8.08768 27.397L7.79393 27.5733C6.8961 28.0933 6.24131 28.9484 5.97328 29.9507C5.70525 30.9531 5.8459 32.0208 6.36434 32.9195L6.79518 33.6637C7.31521 34.5615 8.17025 35.2163 9.1726 35.4844C10.1749 35.7524 11.2427 35.6117 12.1414 35.0933L12.4352 34.9366C13.0306 34.5929 13.706 34.4119 14.3935 34.4119C15.081 34.4119 15.7564 34.5929 16.3518 34.9366L17.1939 35.4262C17.7887 35.7696 18.2828 36.2634 18.6265 36.8581C18.9702 37.4527 19.1516 38.1273 19.1523 38.8141V39.1666C19.1523 40.2054 19.5649 41.2016 20.2994 41.9361C21.0339 42.6706 22.0302 43.0833 23.0689 43.0833H23.9306C24.9694 43.0833 25.9656 42.6706 26.7001 41.9361C27.4346 41.2016 27.8473 40.2054 27.8473 39.1666V38.8141C27.848 38.1273 28.0293 37.4527 28.373 36.8581C28.7167 36.2634 29.2108 35.7696 29.8056 35.4262L30.6477 34.9366C31.2431 34.5929 31.9185 34.4119 32.606 34.4119C33.2935 34.4119 33.9689 34.5929 34.5643 34.9366L34.8581 35.0933C35.7568 35.6117 36.8246 35.7524 37.8269 35.4844C38.8293 35.2163 39.6843 34.5615 40.2043 33.6637L40.6352 32.9C41.1536 32.0012 41.2943 30.9335 41.0262 29.9311C40.7582 28.9288 40.1034 28.0737 39.2056 27.5537L38.9118 27.397C38.3141 27.052 37.8182 26.5551 37.4743 25.9567C37.1304 25.3583 36.9508 24.6797 36.9535 23.9895V23.0104C36.9508 22.3202 37.1304 21.6416 37.4743 21.0432C37.8182 20.4448 38.3141 19.948 38.9118 19.6029L39.2056 19.4266C40.1034 18.9066 40.7582 18.0516 41.0262 17.0492C41.2943 16.0469 41.1536 14.9791 40.6352 14.0804L40.2043 13.3362C39.6843 12.4384 38.8293 11.7836 37.8269 11.5156C36.8246 11.2475 35.7568 11.3882 34.8581 11.9066L34.5643 12.0633C33.9689 12.4071 33.2935 12.588 32.606 12.588C31.9185 12.588 31.2431 12.4071 30.6477 12.0633L29.8056 11.5737C29.2108 11.2303 28.7167 10.7365 28.373 10.1418C28.0293 9.54721 27.848 8.87263 27.8473 8.18579V7.83329C27.8473 6.79453 27.4346 5.79831 26.7001 5.06379C25.9656 4.32927 24.9694 3.91663 23.9306 3.91663Z"
        stroke="black" strokeWidth="3.91667" stroke-linecap="round" stroke-linejoin="round" />
    <path
        d="M23.5 29.3749C26.7447 29.3749 29.375 26.7446 29.375 23.4999C29.375 20.2553 26.7447 17.6249 23.5 17.6249C20.2553 17.6249 17.625 20.2553 17.625 23.4999C17.625 26.7446 20.2553 29.3749 23.5 29.3749Z"
        stroke="black" strokeWidth="3.91667" stroke-linecap="round" stroke-linejoin="round" />
</svg>