<svg width="30" height="27" viewBox="0 0 30 27" fill="none" xmlns="http://www.w3.org/2000/svg">
    <path
        d="M4.42641 27C3.44574 27 2.60653 26.6608 1.90877 25.9824C1.21101 25.304 0.86154 24.4875 0.860352 23.5329V20.0658C0.860352 19.5746 1.03152 19.1632 1.37386 18.8315C1.71621 18.4998 2.13938 18.3334 2.64338 18.3323C3.14738 18.3311 3.57115 18.4975 3.91468 18.8315C4.25821 19.1655 4.42879 19.577 4.42641 20.0658V23.5329H25.8227V20.0658C25.8227 19.5746 25.9939 19.1632 26.3363 18.8315C26.6786 18.4998 27.1018 18.3334 27.6058 18.3323C28.1098 18.3311 28.5335 18.4975 28.8771 18.8315C29.2206 19.1655 29.3912 19.577 29.3888 20.0658V23.5329C29.3888 24.4864 29.0399 25.3029 28.3422 25.9824C27.6444 26.662 26.8046 27.0012 25.8227 27H4.42641ZM13.3415 5.93742L9.99837 9.18782C9.64176 9.53453 9.21859 9.70095 8.72886 9.68708C8.23912 9.67321 7.81535 9.49234 7.45756 9.14448C7.13067 8.79777 6.9595 8.39328 6.94404 7.931C6.92859 7.46872 7.09976 7.06423 7.45756 6.71752L13.8765 0.476751C14.0548 0.303396 14.2479 0.180893 14.4559 0.10924C14.664 0.0375864 14.8868 0.00118237 15.1246 2.66703e-05C15.3623 -0.00112903 15.5852 0.035275 15.7932 0.10924C16.0012 0.183204 16.1944 0.305708 16.3727 0.476751L22.7916 6.71752C23.1482 7.06423 23.3194 7.46872 23.3051 7.931C23.2908 8.39328 23.1197 8.79777 22.7916 9.14448C22.435 9.49119 22.0118 9.67205 21.5221 9.68708C21.0323 9.7021 20.6086 9.53568 20.2508 9.18782L16.9076 5.93742V18.3323C16.9076 18.8234 16.7364 19.2354 16.3941 19.5683C16.0518 19.9011 15.6286 20.067 15.1246 20.0658C14.6206 20.0647 14.1974 19.8982 13.8551 19.5666C13.5127 19.2349 13.3415 18.8234 13.3415 18.3323V5.93742Z"
        fill="#7B7B7B" />
</svg>