<svg width="29" height="34" viewBox="0 0 29 34" fill="none" xmlns="http://www.w3.org/2000/svg">
    <path
        d="M15.4555 32.6379L15.4378 32.6411L15.3234 32.6975L15.2912 32.704L15.2686 32.6975L15.1542 32.6411C15.137 32.6358 15.1242 32.6384 15.1156 32.6492L15.1091 32.6653L15.0817 33.3548L15.0898 33.3871L15.1059 33.408L15.2734 33.5272L15.2976 33.5337L15.3169 33.5272L15.4845 33.408L15.5038 33.3822L15.5103 33.3548L15.4829 32.6669C15.4786 32.6497 15.4695 32.6401 15.4555 32.6379ZM15.8824 32.4559L15.8615 32.4591L15.5634 32.6089L15.5473 32.625L15.5425 32.6427L15.5715 33.3355L15.5796 33.3548L15.5924 33.3661L15.9163 33.516C15.9367 33.5213 15.9523 33.517 15.963 33.5031L15.9694 33.4805L15.9147 32.4913C15.9093 32.472 15.8986 32.4601 15.8824 32.4559ZM14.7305 32.4591C14.7234 32.4548 14.7149 32.4534 14.7068 32.4552C14.6987 32.457 14.6916 32.4618 14.687 32.4687L14.6773 32.4913L14.6226 33.4805C14.6236 33.4999 14.6328 33.5127 14.6499 33.5192L14.6741 33.516L14.9979 33.3661L15.0141 33.3532L15.0205 33.3355L15.0479 32.6427L15.0431 32.6234L15.0269 32.6073L14.7305 32.4591Z"
        fill="#7B7B7B" />
    <path
        d="M14.5 0C14.8946 5.20559e-05 15.2755 0.144929 15.5704 0.407153C15.8653 0.669376 16.0537 1.03071 16.0998 1.42261L16.1111 1.61111V27.3889C16.1107 27.7995 15.9534 28.1945 15.6715 28.4931C15.3896 28.7917 15.0044 28.9714 14.5944 28.9954C14.1845 29.0195 13.7808 28.8861 13.4659 28.6226C13.151 28.359 12.9487 27.9852 12.9002 27.5774L12.8889 27.3889V1.61111C12.8889 1.18382 13.0586 0.774025 13.3608 0.471883C13.6629 0.169742 14.0727 0 14.5 0ZM8.05556 4.83333C8.48285 4.83333 8.89264 5.00308 9.19478 5.30522C9.49693 5.60736 9.66667 6.01715 9.66667 6.44444V22.5556C9.66667 22.9828 9.49693 23.3926 9.19478 23.6948C8.89264 23.9969 8.48285 24.1667 8.05556 24.1667C7.62826 24.1667 7.21847 23.9969 6.91633 23.6948C6.61419 23.3926 6.44444 22.9828 6.44444 22.5556V6.44444C6.44444 6.01715 6.61419 5.60736 6.91633 5.30522C7.21847 5.00308 7.62826 4.83333 8.05556 4.83333ZM20.9444 4.83333C21.3717 4.83333 21.7815 5.00308 22.0837 5.30522C22.3858 5.60736 22.5556 6.01715 22.5556 6.44444V22.5556C22.5556 22.9828 22.3858 23.3926 22.0837 23.6948C21.7815 23.9969 21.3717 24.1667 20.9444 24.1667C20.5172 24.1667 20.1074 23.9969 19.8052 23.6948C19.5031 23.3926 19.3333 22.9828 19.3333 22.5556V6.44444C19.3333 6.01715 19.5031 5.60736 19.8052 5.30522C20.1074 5.00308 20.5172 4.83333 20.9444 4.83333ZM1.61111 9.66667C2.0384 9.66667 2.4482 9.83641 2.75034 10.1386C3.05248 10.4407 3.22222 10.8505 3.22222 11.2778V17.7222C3.22222 18.1495 3.05248 18.5593 2.75034 18.8615C2.4482 19.1636 2.0384 19.3333 1.61111 19.3333C1.18382 19.3333 0.774025 19.1636 0.471883 18.8615C0.169742 18.5593 0 18.1495 0 17.7222V11.2778C0 10.8505 0.169742 10.4407 0.471883 10.1386C0.774025 9.83641 1.18382 9.66667 1.61111 9.66667ZM27.3889 9.66667C27.7835 9.66672 28.1644 9.8116 28.4593 10.0738C28.7542 10.336 28.9426 10.6974 28.9887 11.0893L29 11.2778V17.7222C28.9995 18.1329 28.8423 18.5278 28.5604 18.8264C28.2785 19.125 27.8932 19.3047 27.4833 19.3288C27.0734 19.3528 26.6697 19.2195 26.3548 18.9559C26.0399 18.6923 25.8376 18.3185 25.7891 17.9107L25.7778 17.7222V11.2778C25.7778 10.8505 25.9475 10.4407 26.2497 10.1386C26.5518 9.83641 26.9616 9.66667 27.3889 9.66667Z"
        fill="#7B7B7B" />
</svg>